<svg viewBox="0 164 2560 557" width="2560" height="557">
  <path d="M0 324L61 308.2C122 292.3 244 260.7 365.8 235.3C487.7 210 609.3 191 731.2 196.8C853 202.7 975 233.3 1097 251.7C1219 270 1341 276 1463 260C1585 244 1707 206 1828.8 196.8C1950.7 187.7 2072.3 207.3 2194.2 206.7C2316 206 2438 185 2499 174.5L2560 164L2560 721L2499 721C2438 721 2316 721 2194.2 721C2072.3 721 1950.7 721 1828.8 721C1707 721 1585 721 1463 721C1341 721 1219 721 1097 721C975 721 853 721 731.2 721C609.3 721 487.7 721 365.8 721C244 721 122 721 61 721L0 721Z" style="fill: rgb(153, 62, 141);"></path>
  <path d="M0 275L61 290.5C122 306 244 337 365.8 336.8C487.7 336.7 609.3 305.3 731.2 294.3C853 283.3 975 292.7 1097 298.3C1219 304 1341 306 1463 319.5C1585 333 1707 358 1828.8 349.2C1950.7 340.3 2072.3 297.7 2194.2 278C2316 258.3 2438 261.7 2499 263.3L2560 265L2560 721L2499 721C2438 721 2316 721 2194.2 721C2072.3 721 1950.7 721 1828.8 721C1707 721 1585 721 1463 721C1341 721 1219 721 1097 721C975 721 853 721 731.2 721C609.3 721 487.7 721 365.8 721C244 721 122 721 61 721L0 721Z" style="fill: rgb(129, 34, 117);"></path>
  <path d="M0 437L61 430.5C122 424 244 411 365.8 412.3C487.7 413.7 609.3 429.3 731.2 444.3C853 459.3 975 473.7 1097 472.5C1219 471.3 1341 454.7 1463 439.2C1585 423.7 1707 409.3 1828.8 415.7C1950.7 422 2072.3 449 2194.2 456C2316 463 2438 450 2499 443.5L2560 437L2560 721L2499 721C2438 721 2316 721 2194.2 721C2072.3 721 1950.7 721 1828.8 721C1707 721 1585 721 1463 721C1341 721 1219 721 1097 721C975 721 853 721 731.2 721C609.3 721 487.7 721 365.8 721C244 721 122 721 61 721L0 721Z" style="fill: rgb(115, 15, 102);"></path>
</svg>