<svg xmlns="http://www.w3.org/2000/svg" xmlns:svgjs="http://svgjs.dev/svgjs" xmlns:xlink="http://www.w3.org/1999/xlink" version="1.1" viewBox="0 0 1422 800"><defs><filter id="llleaves-blur-2" width="400%" height="400%" x="-100%" y="-100%"><feGaussianBlur in="SourceGraphic" stdDeviation="2"/></filter><filter id="llleaves-blur-3" width="400%" height="400%" x="-100%" y="-100%"><feGaussianBlur in="SourceGraphic" stdDeviation="4"/></filter><filter id="llleaves-blur-4" width="400%" height="400%" x="-100%" y="-100%"><feGaussianBlur in="SourceGraphic" stdDeviation="12"/></filter></defs><g fill="hsl(282, 100%, 94%)"><path d="M145 596H195C223 596 245 618 245 646H195C167 646 145 624 145 596Z" opacity=".7" transform="matrix(-0.2688431466211856,-0.3700308464519806,0.3700308464519806,-0.2688431466211856,17.63525794445124,860.1076091098923)"/><path d="M362 156H412C440 156 462 178 462 206H412C384 206 362 184 362 156Z" opacity=".68" transform="matrix(-0.3139065354895061,-0.313906535489506,0.313906535489506,-0.3139065354895061,484.5124096980759,367.1465755452771)"/><path d="M1313 166H1363C1391 166 1413 188 1413 216H1363C1335 216 1313 194 1313 166Z" opacity=".64" transform="matrix(-0.36652976602197274,-0.203170766932845,0.203170766932845,-0.36652976602197274,1823.7744546037757,537.9289406396645)"/><path d="M370 303H420C448 303 470 325 470 353H420C392 353 370 331 370 303Z" opacity=".68" transform="matrix(-0.3227382275098435,-0.30095826602625786,0.30095826602625786,-0.3227382275098435,456.83574429752167,560.260610354257)"/><path d="M337 448H387C415 448 437 470 437 498H387C359 498 337 476 337 448Z" opacity=".68" transform="matrix(-0.3139065354895061,-0.313906535489506,0.313906535489506,-0.3139065354895061,360.00403794790253,742.9596205209752)"/><path d="M374 703H424C452 703 474 725 474 753H424C396 753 374 731 374 703Z" opacity=".68" transform="matrix(-0.3227382275098435,-0.30095826602625786,0.30095826602625786,-0.3227382275098435,341.7433907970579,1090.5597344222992)"/><path d="M17 385H67C95 385 117 407 117 435H67C39 435 17 413 17 385Z" opacity=".71" transform="matrix(-0.25767975163942936,-0.38202594215667435,0.38202594215667435,-0.25767975163942936,-72.36609292439474,541.2444362966631)"/><path d="M120 292H170C198 292 220 314 220 342H170C142 342 120 320 120 292Z" opacity=".7" transform="matrix(-0.26301247184721893,-0.3756207374169219,0.3756207374169219,-0.26301247184721893,95.64034645286297,464.23047893644514)"/><path d="M4 214H54C82 214 104 236 104 264H54C26 264 4 242 4 214Z" opacity=".71" transform="matrix(-0.2578622229766951,-0.38229646703917686,0.38229646703917686,-0.2578622229766951,-23.44429558162173,321.2730805115457)"/><path d="M1128 719H1178C1206 719 1228 741 1228 769H1178C1150 769 1128 747 1128 719Z" opacity=".64" transform="matrix(-0.37062120448870667,-0.1888409358092746,0.1888409358092746,-0.37062120448870667,1474.0941226455961,1242.1967985229232)"/><path d="M591 33H641C669 33 691 55 691 83H641C613 83 591 61 591 33Z" filter="url(#llleaves-blur-2)" opacity=".6" transform="matrix(-0.38469287062145585,-0.0747767191144749,0.0747767191144749,-0.38469287062145585,883.2510803597138,128.24406344842282)"/><path d="M932 139H982C1010 139 1032 161 1032 189H982C954 189 932 167 932 139Z" opacity=".64" transform="matrix(-0.3714609483474058,-0.18926880667633844,0.18926880667633844,-0.3714609483474058,1315.734566982233,410.7815636851389)"/><path d="M329 35H379C407 35 429 57 429 85H379C351 85 329 63 329 35Z" filter="url(#llleaves-blur-2)" opacity=".61" transform="matrix(-0.38441712274881973,-0.11022983615490127,0.11022983615490127,-0.38441712274881973,518.0802993525086,124.84213526763676)"/><path d="M1052 584H1102C1130 584 1152 606 1152 634H1102C1074 634 1052 612 1052 584Z" opacity=".64" transform="matrix(-0.37514706693765393,-0.17493395024741382,0.17493395024741382,-0.37514706693765393,1408.8772920646195,1030.2417769376812)"/><path d="M1313 571H1363C1391 571 1413 593 1413 621H1363C1335 621 1313 599 1313 571Z" opacity=".64" transform="matrix(-0.3662436319815198,-0.2030121602442932,0.2030121602442932,-0.3662436319815198,1741.194822885213,1090.9867790739575)"/><path d="M1327 36H1377C1405 36 1427 58 1427 86H1377C1349 86 1327 64 1327 36Z" opacity=".71" transform="matrix(-0.2457598268904831,-0.3932979368239913,0.3932979368239913,-0.2457598268904831,1691.4201074819318,617.5626084469554)"/><path d="M704 242H754C782 242 804 264 804 292H754C726 292 704 270 704 242Z" opacity=".63" transform="matrix(-0.3746975265657326,-0.17472432612933705,0.17472432612933705,-0.3746975265657326,989.8705399540293,498.7863814945707)"/><path d="M1184 494H1234C1262 494 1284 516 1284 544H1234C1206 544 1184 522 1184 494Z" opacity=".64" transform="matrix(-0.36882029699771157,-0.19610523050187106,0.19610523050187106,-0.36882029699771157,1587.345631864705,952.4115885811212)"/><path d="M483 408H533C561 408 583 430 583 458H533C505 458 483 436 483 408Z" opacity=".66" transform="matrix(-0.347739889023368,-0.25264781805934133,0.25264781805934133,-0.347739889023368,608.9488556297604,718.2326589727473)"/><path d="M1194 355H1244C1272 355 1294 377 1294 405H1244C1216 405 1194 383 1194 355Z" opacity=".64" transform="matrix(-0.36882029699771157,-0.19610523050187106,0.19610523050187106,-0.36882029699771157,1628.2924618744423,764.1066196034581)"/><path d="M817 443H867C895 443 917 465 917 493H867C839 493 817 471 817 443Z" opacity=".63" transform="matrix(-0.3771688810635084,-0.1600986914694149,0.1600986914694149,-0.3771688810635084,1119.0792322743755,783.3206018417047)"/><path d="M810 158H860C888 158 910 180 910 208H860C832 208 810 186 810 158Z" opacity=".63" transform="matrix(-0.3771688810635084,-0.1600986914694149,0.1600986914694149,-0.3771688810635084,1155.0671771757143,389.7067798983188)"/><path d="M16 540H66C94 540 116 562 116 590H66C38 590 16 568 16 540Z" opacity=".71" transform="matrix(-0.25767975163942936,-0.38202594215667435,0.38202594215667435,-0.25767975163942936,-132.8377937103187,735.8027718586181)"/><path d="M1152 49H1202C1230 49 1252 71 1252 99H1202C1174 99 1152 77 1152 49Z" opacity=".7" transform="matrix(-0.2689127482652982,-0.3701266448965723,0.3701266448965723,-0.2689127482652982,1497.8437516925421,538.791770537312)"/><path d="M678 706H728C756 706 778 728 778 756H728C700 756 678 734 678 706Z" opacity=".64" transform="matrix(-0.37308313350426786,-0.18196480245429925,0.18196480245429925,-0.37308313350426786,866.5882505970143,1136.19414677835)"/><path d="M244 339H294C322 339 344 361 344 389H294C266 389 244 367 244 339Z" opacity=".7" transform="matrix(-0.2849149180469339,-0.35184062215057615,0.35184062215057615,-0.2849149180469339,249.69499944298886,571.1501730813534)"/><path d="M472 227H522C550 227 572 249 572 277H522C494 277 472 255 472 227Z" opacity=".66" transform="matrix(-0.3410012472147225,-0.2664193730697262,0.2664193730697262,-0.3410012472147225,632.8649690325142,477.00322704050717)"/><path d="M1310 296H1360C1388 296 1410 318 1410 346H1360C1332 346 1310 324 1310 296Z" opacity=".64" transform="matrix(-0.36652976602197274,-0.203170766932845,0.203170766932845,-0.36652976602197274,1793.2626656044397,714.9682979217224)"/><path d="M841 287H891C919 287 941 309 941 337H891C863 337 841 315 841 287Z" opacity=".63" transform="matrix(-0.3769879392524266,-0.16002188622741131,0.16002188622741131,-0.3769879392524266,1176.9694253709597,572.1997376753807)"/><path d="M1297 713H1347C1375 713 1397 735 1397 763H1347C1319 763 1297 741 1297 713Z" opacity=".64" transform="matrix(-0.36652976602197274,-0.203170766932845,0.203170766932845,-0.36652976602197274,1690.7755688351576,1282.1699903827582)"/><path d="M842 35H892C920 35 942 57 942 85H892C864 85 842 63 842 35Z" opacity=".65" transform="matrix(-0.3648083303769963,-0.2106221877457768,0.2106221877457768,-0.3648083303769963,1204.771699431534,269.7634912918527)"/><path d="M823 710H873C901 710 923 732 923 760H873C845 760 823 738 823 710Z" opacity=".63" transform="matrix(-0.3771688810635084,-0.1600986914694149,0.1600986914694149,-0.3771688810635084,1084.5958949384228,1151.985285234478)"/><path d="M720 363H770C798 363 820 385 820 413H770C742 413 720 391 720 363Z" opacity=".63" transform="matrix(-0.3746975265657326,-0.17472432612933705,0.17472432612933705,-0.3746975265657326,990.7240569174314,667.9203714270938)"/><path d="M525 706H575C603 706 625 728 625 756H575C547 756 525 734 525 706Z" opacity=".66" transform="matrix(-0.3539808598566906,-0.23876310477254314,0.23876310477254314,-0.3539808598566906,604.0031648288681,1127.048793799453)"/><path d="M239 191H289C317 191 339 213 339 241H289C261 241 239 219 239 191Z" opacity=".7" transform="matrix(-0.2849149180469339,-0.35184062215057615,0.35184062215057615,-0.2849149180469339,295.34283693103947,379.22356209965426)"/><path d="M455 557H505C533 557 555 579 555 607H505C477 607 455 585 455 557Z" opacity=".66" transform="matrix(-0.3410012472147225,-0.2664193730697262,0.2664193730697262,-0.3410012472147225,522.1495547168543,915.0045092791802)"/><path d="M466 53H516C544 53 566 75 566 103H516C488 103 466 81 466 53Z" filter="url(#llleaves-blur-2)" opacity=".61" transform="matrix(-0.38529063256901636,-0.0960637439326185,0.0960637439326185,-0.38529063256901636,707.3169943788682,157.62156120961447)"/><path d="M1238 53H1288C1316 53 1338 75 1338 103H1288C1260 103 1238 81 1238 53Z" opacity=".71" transform="matrix(-0.24537556838496943,-0.39268299466954004,0.39268299466954004,-0.24537556838496943,1573.4144584956166,602.9149914683951)"/><path d="M629 456H679C707 456 729 478 729 506H679C651 506 629 484 629 456Z" opacity=".64" transform="matrix(-0.3666546765889879,-0.2032400059907636,0.2032400059907636,-0.3666546765889879,830.2000825223654,795.3608635070317)"/><path d="M1193 204H1243C1271 204 1293 226 1293 254H1243C1215 254 1193 232 1193 204Z" opacity=".64" transform="matrix(-0.36882029699771157,-0.19610523050187106,0.19610523050187106,-0.36882029699771157,1656.535531383227,557.2186495263016)"/><path d="M583 312H633C661 312 683 334 683 362H633C605 362 583 340 583 312Z" opacity=".65" transform="matrix(-0.36140583862173487,-0.21715453591443018,0.21715453591443018,-0.36140583862173487,788.5888172443952,596.252588849359)"/><path d="M114 142H164C192 142 214 164 214 192H164C136 192 114 170 114 142Z" opacity=".68" transform="matrix(-0.3095429736026394,-0.3205411325864069,0.3205411325864069,-0.3095429736026394,161.23467852890292,271.2624223358115)"/><path d="M955 30H1005C1033 30 1055 52 1055 80H1005C977 80 955 58 955 30Z" opacity=".67" transform="matrix(-0.3300079893445162,-0.28687156851058665,0.28687156851058665,-0.3300079893445162,1320.8800930231564,361.456365767088)"/><path d="M210 714H260C288 714 310 736 310 764H260C232 764 210 742 210 714Z" opacity=".7" transform="matrix(-0.2798005238310808,-0.3581283391608322,0.3581283391608322,-0.2798005238310808,68.09129355622599,1038.8859552929853)"/><path d="M978 711H1028C1056 711 1078 733 1078 761H1028C1000 761 978 739 978 711Z" opacity=".63" transform="matrix(-0.3755916118873076,-0.16722415957349973,0.16722415957349973,-0.3755916118873076,1291.0311955740565,1184.3418623906161)"/></g><g fill="none" stroke="hsl(282, 100%, 94%)" stroke-width="3"><path d="M748 565H798C826 565 848 587 848 615H798C770 615 748 593 748 565Z" opacity=".63" transform="matrix(-0.3764384296888961,-0.16760118714999686,0.16760118714999686,-0.3764384296888961,999.513166473241,945.8444208621462)"/><path d="M1310 433H1360C1388 433 1410 455 1410 483H1360C1332 483 1310 461 1310 433Z" opacity=".64" transform="matrix(-0.36652976602197274,-0.203170766932845,0.203170766932845,-0.36652976602197274,1765.42827053464,902.1828758667327)"/><path d="M1192 619H1242C1270 619 1292 641 1292 669H1242C1214 669 1192 647 1192 619Z" opacity=".64" transform="matrix(-0.36882029699771157,-0.19610523050187106,0.19610523050187106,-0.36882029699771157,1573.7830404279528,1125.08296754985)"/><path d="M725 27H775C803 27 825 49 825 77H775C747 77 725 55 725 27Z" opacity=".62" transform="matrix(-0.3814537550615743,-0.13883781259148376,0.13883781259148376,-0.3814537550615743,1063.4070939179628,179.43490002160178)"/><path d="M687 126H737C765 126 787 148 787 176H737C709 176 687 154 687 126Z" opacity=".63" transform="matrix(-0.374173154004473,-0.17447980718829534,0.17447980718829534,-0.374173154004473,986.419163615864,336.0917641524492)"/><path d="M949 364H999C1027 364 1049 386 1049 414H999C971 414 949 392 949 364Z" opacity=".63" transform="matrix(-0.3778102576770344,-0.1603709396895625,0.1603709396895625,-0.3778102576770344,1314.0481518801175,696.1787589862392)"/><path d="M1056 34H1106C1134 34 1156 56 1156 84H1106C1078 84 1056 62 1056 34Z" opacity=".7" transform="matrix(-0.2740819146964306,-0.3637189855977052,0.3637189855977052,-0.2740819146964306,1387.6751775039877,477.4440310381514)"/><path d="M573 167H623C651 167 673 189 673 217H623C595 217 573 195 573 167Z" opacity=".65" transform="matrix(-0.36140583862173487,-0.21715453591443018,0.21715453591443018,-0.36140583862173487,806.4621665657703,396.67719689006316)"/><path d="M1083 295H1133C1161 295 1183 317 1183 345H1133C1105 345 1083 323 1083 295Z" opacity=".64" transform="matrix(-0.37295958886927366,-0.1819045457096701,0.1819045457096701,-0.37295958886927366,1497.3537595617927,645.4449187272239)"/><path d="M189 38H239C267 38 289 60 289 88H239C211 88 189 66 189 38Z" opacity=".62" transform="matrix(-0.38289709289056584,-0.12441080711046569,0.12441080711046569,-0.38289709289056584,322.6745243528859,116.85669975150695)"/><path d="M969 242H1019C1047 242 1069 264 1069 292H1019C991 292 969 270 969 242Z" opacity=".63" transform="matrix(-0.3755916118873076,-0.16722415957349973,0.16722415957349973,-0.3755916118873076,1357.079001907042,537.6843789793074)"/><path d="M892 596H942C970 596 992 618 992 646H942C914 646 892 624 892 596Z" opacity=".63" transform="matrix(-0.3770496987515718,-0.16004810157946017,0.16004810157946017,-0.3770496987515718,1197.7909451431358,1005.9131746125776)"/><path d="M22 44H72C100 44 122 66 122 94H72C44 94 22 72 22 44Z" opacity=".62" transform="matrix(-0.38272556219949333,-0.1317829793770969,0.1317829793770969,-0.38272556219949333,90.46321490134383,104.89643830691602)"/><path d="M31 703H81C109 703 131 725 131 753H81C53 753 31 731 31 703Z" opacity=".71" transform="matrix(-0.25767975163942936,-0.38202594215667435,0.38202594215667435,-0.25767975163942936,-176.24282600726514,946.5349605081952)"/><path d="M1070 434H1120C1148 434 1170 456 1170 484H1120C1092 484 1070 462 1070 434Z" opacity=".64" transform="matrix(-0.37514706693765393,-0.17493395024741382,0.17493395024741382,-0.37514706693765393,1459.8700318066094,827.1185280014867)"/><path d="M164 455H214C242 455 264 477 264 505H214C186 505 164 483 164 455Z" opacity=".7" transform="matrix(-0.2744410212360109,-0.36419553607146526,0.36419553607146526,-0.2744410212360109,97.916521230203,689.6695349125788)"/><path d="M1071 157H1121C1149 157 1171 179 1171 207H1121C1093 207 1071 185 1071 157Z" opacity=".64" transform="matrix(-0.37514706693765393,-0.17493395024741382,0.17493395024741382,-0.37514706693765393,1509.7018830920808,446.3777244100039)"/><path d="M599 581H649C677 581 699 603 699 631H649C621 631 599 609 599 581Z" opacity=".65" transform="matrix(-0.36140583862173487,-0.21715453591443018,0.21715453591443018,-0.36140583862173487,751.9567405013613,965.9452320132366)"/><path d="M293 577H343C371 577 393 599 393 627H343C315 627 293 605 293 577Z" opacity=".69" transform="matrix(-0.30024138301365055,-0.3334518374445851,0.3334518374445851,-0.30024138301365055,245.24478823204188,897.1192928177104)"/><path d="M947 488H997C1025 488 1047 510 1047 538H997C969 538 947 516 947 488Z" opacity=".63" transform="matrix(-0.3778102576770344,-0.1603709396895625,0.1603709396895625,-0.3778102576770344,1291.4065348432578,866.7064890588125)"/></g></svg>